<svg width="99" height="18" viewBox="0 0 99 18" fill="none" xmlns="http://www.w3.org/2000/svg">
<path d="M8.264 0.199999C9.752 0.199999 11.04 0.447999 12.128 0.943999C13.232 1.44 14.08 2.144 14.672 3.056C15.264 3.968 15.56 5.048 15.56 6.296C15.56 7.528 15.264 8.608 14.672 9.536C14.08 10.448 13.232 11.152 12.128 11.648C11.04 12.128 9.752 12.368 8.264 12.368H4.88V17H0.992V0.199999H8.264ZM8.048 9.2C9.216 9.2 10.104 8.952 10.712 8.456C11.32 7.944 11.624 7.224 11.624 6.296C11.624 5.352 11.32 4.632 10.712 4.136C10.104 3.624 9.216 3.368 8.048 3.368H4.88V9.2H8.048ZM25.7294 17.288C23.3294 17.288 21.4574 16.624 20.1134 15.296C18.7854 13.968 18.1214 12.072 18.1214 9.608V0.199999H22.0094V9.464C22.0094 12.472 23.2574 13.976 25.7534 13.976C26.9694 13.976 27.8974 13.616 28.5374 12.896C29.1774 12.16 29.4974 11.016 29.4974 9.464V0.199999H33.3374V9.608C33.3374 12.072 32.6654 13.968 31.3214 15.296C29.9934 16.624 28.1294 17.288 25.7294 17.288ZM52.4675 17L52.4435 6.92L47.4995 15.224H45.7475L40.8275 7.136V17H37.1795V0.199999H40.3955L46.6835 10.64L52.8755 0.199999H56.0675L56.1155 17H52.4675ZM67.3734 0.199999C68.8614 0.199999 70.1494 0.447999 71.2374 0.943999C72.3414 1.44 73.1894 2.144 73.7814 3.056C74.3734 3.968 74.6694 5.048 74.6694 6.296C74.6694 7.528 74.3734 8.608 73.7814 9.536C73.1894 10.448 72.3414 11.152 71.2374 11.648C70.1494 12.128 68.8614 12.368 67.3734 12.368H63.9894V17H60.1014V0.199999H67.3734ZM67.1574 9.2C68.3254 9.2 69.2134 8.952 69.8214 8.456C70.4294 7.944 70.7334 7.224 70.7334 6.296C70.7334 5.352 70.4294 4.632 69.8214 4.136C69.2134 3.624 68.3254 3.368 67.1574 3.368H63.9894V9.2H67.1574ZM77.4451 0.199999H81.3331V17H77.4451V0.199999ZM88.8001 3.368H83.4241V0.199999H98.0641V3.368H92.6881V17H88.8001V3.368Z" fill="#071C35"/>
</svg>
